<mxfile host="65bd71144e">
    <diagram id="UoekVkbAtW-dDowaNyM7" name="Struct">
        <mxGraphModel dx="838" dy="556" grid="1" gridSize="10" guides="1" tooltips="1" connect="1" arrows="1" fold="1" page="1" pageScale="1" pageWidth="827" pageHeight="1169" math="0" shadow="0">
            <root>
                <mxCell id="0"/>
                <mxCell id="1" parent="0"/>
                <mxCell id="3" value="" style="edgeStyle=orthogonalEdgeStyle;rounded=0;orthogonalLoop=1;jettySize=auto;html=1;" parent="1" target="2" edge="1">
                    <mxGeometry relative="1" as="geometry">
                        <mxPoint x="414" y="620" as="sourcePoint"/>
                    </mxGeometry>
                </mxCell>
                <mxCell id="20" value="" style="edgeStyle=orthogonalEdgeStyle;rounded=0;orthogonalLoop=1;jettySize=auto;html=1;entryX=0.56;entryY=0.019;entryDx=0;entryDy=0;entryPerimeter=0;" parent="1" source="cnb9S7JxWDHkOh-pV-jJ-2" target="6" edge="1">
                    <mxGeometry relative="1" as="geometry">
                        <mxPoint x="414" y="240" as="targetPoint"/>
                        <Array as="points">
                            <mxPoint x="620" y="170"/>
                            <mxPoint x="620" y="340"/>
                            <mxPoint x="621" y="340"/>
                        </Array>
                    </mxGeometry>
                </mxCell>
                <mxCell id="cnb9S7JxWDHkOh-pV-jJ-2" value="WEB" style="rounded=1;whiteSpace=wrap;html=1;" parent="1" vertex="1">
                    <mxGeometry x="165" y="150" width="110" height="60" as="geometry"/>
                </mxCell>
                <mxCell id="cnb9S7JxWDHkOh-pV-jJ-3" value="Planning" style="rounded=1;whiteSpace=wrap;html=1;" parent="1" vertex="1">
                    <mxGeometry x="600" y="60" width="120" height="60" as="geometry"/>
                </mxCell>
                <mxCell id="5" value="" style="edgeStyle=orthogonalEdgeStyle;rounded=0;orthogonalLoop=1;jettySize=auto;html=1;" parent="1" source="2" target="4" edge="1">
                    <mxGeometry relative="1" as="geometry"/>
                </mxCell>
                <mxCell id="9" value="" style="edgeStyle=orthogonalEdgeStyle;rounded=0;orthogonalLoop=1;jettySize=auto;html=1;" parent="1" source="2" target="8" edge="1">
                    <mxGeometry relative="1" as="geometry"/>
                </mxCell>
                <mxCell id="24" style="edgeStyle=orthogonalEdgeStyle;rounded=0;orthogonalLoop=1;jettySize=auto;html=1;entryX=0;entryY=0.5;entryDx=0;entryDy=0;" parent="1" source="2" target="23" edge="1">
                    <mxGeometry relative="1" as="geometry">
                        <mxPoint x="490" y="510" as="targetPoint"/>
                    </mxGeometry>
                </mxCell>
                <mxCell id="2" value="Authorization Route&lt;br&gt;" style="whiteSpace=wrap;html=1;rounded=1;" parent="1" vertex="1">
                    <mxGeometry x="354" y="480" width="120" height="60" as="geometry"/>
                </mxCell>
                <mxCell id="7" value="" style="edgeStyle=orthogonalEdgeStyle;rounded=0;orthogonalLoop=1;jettySize=auto;html=1;" parent="1" source="4" target="6" edge="1">
                    <mxGeometry relative="1" as="geometry"/>
                </mxCell>
                <mxCell id="4" value="Authorization MiddleWare" style="whiteSpace=wrap;html=1;rounded=1;" parent="1" vertex="1">
                    <mxGeometry x="354" y="340" width="120" height="60" as="geometry"/>
                </mxCell>
                <mxCell id="25" style="edgeStyle=orthogonalEdgeStyle;rounded=0;orthogonalLoop=1;jettySize=auto;html=1;" parent="1" source="6" target="23" edge="1">
                    <mxGeometry relative="1" as="geometry"/>
                </mxCell>
                <mxCell id="6" value="TodoService&lt;br&gt;" style="whiteSpace=wrap;html=1;rounded=1;" parent="1" vertex="1">
                    <mxGeometry x="554" y="340" width="120" height="60" as="geometry"/>
                </mxCell>
                <mxCell id="8" value="POST: register,&lt;br&gt;POST: login" style="whiteSpace=wrap;html=1;rounded=1;" parent="1" vertex="1">
                    <mxGeometry x="150" y="480" width="120" height="60" as="geometry"/>
                </mxCell>
                <mxCell id="13" value="" style="shape=flexArrow;endArrow=classic;startArrow=none;html=1;" parent="1" source="15" edge="1">
                    <mxGeometry width="100" height="100" relative="1" as="geometry">
                        <mxPoint x="220" y="470" as="sourcePoint"/>
                        <mxPoint x="220" y="210" as="targetPoint"/>
                    </mxGeometry>
                </mxCell>
                <mxCell id="15" value="GET:&lt;br&gt;Authorizate token" style="text;html=1;align=center;verticalAlign=middle;resizable=0;points=[];autosize=1;strokeColor=none;" parent="1" vertex="1">
                    <mxGeometry x="165" y="240" width="110" height="30" as="geometry"/>
                </mxCell>
                <mxCell id="16" value="" style="shape=flexArrow;endArrow=none;startArrow=none;html=1;" parent="1" source="14" target="15" edge="1">
                    <mxGeometry width="100" height="100" relative="1" as="geometry">
                        <mxPoint x="220" y="470" as="sourcePoint"/>
                        <mxPoint x="220" y="210" as="targetPoint"/>
                    </mxGeometry>
                </mxCell>
                <mxCell id="14" value="POST: username&lt;br&gt;password" style="text;whiteSpace=wrap;html=1;" parent="1" vertex="1">
                    <mxGeometry x="175" y="380" width="90" height="30" as="geometry"/>
                </mxCell>
                <mxCell id="18" value="" style="shape=flexArrow;endArrow=none;startArrow=classic;html=1;" parent="1" target="14" edge="1">
                    <mxGeometry width="100" height="100" relative="1" as="geometry">
                        <mxPoint x="220" y="470" as="sourcePoint"/>
                        <mxPoint x="220" y="270" as="targetPoint"/>
                    </mxGeometry>
                </mxCell>
                <mxCell id="21" value="POST:Authorizate token&lt;br&gt;Title&lt;br&gt;Describtion&lt;br&gt;Date" style="text;html=1;align=center;verticalAlign=middle;resizable=0;points=[];autosize=1;strokeColor=none;" parent="1" vertex="1">
                    <mxGeometry x="490" y="260" width="140" height="60" as="geometry"/>
                </mxCell>
                <mxCell id="23" value="Database" style="shape=cylinder;whiteSpace=wrap;html=1;boundedLbl=1;backgroundOutline=1;" parent="1" vertex="1">
                    <mxGeometry x="600" y="480" width="60" height="80" as="geometry"/>
                </mxCell>
                <mxCell id="26" value="Model:User" style="text;html=1;align=center;verticalAlign=middle;resizable=0;points=[];autosize=1;strokeColor=none;" parent="1" vertex="1">
                    <mxGeometry x="510" y="540" width="80" height="20" as="geometry"/>
                </mxCell>
                <mxCell id="27" value="Model: Todo" style="text;html=1;align=center;verticalAlign=middle;resizable=0;points=[];autosize=1;strokeColor=none;" parent="1" vertex="1">
                    <mxGeometry x="630" y="450" width="80" height="20" as="geometry"/>
                </mxCell>
                <mxCell id="28" value="22.08.2021" style="text;html=1;align=center;verticalAlign=middle;resizable=0;points=[];autosize=1;strokeColor=none;" parent="1" vertex="1">
                    <mxGeometry x="334" y="540" width="80" height="20" as="geometry"/>
                </mxCell>
                <mxCell id="30" value="Server:&lt;br&gt;NodeJS&lt;br&gt;Express" style="shape=cylinder;whiteSpace=wrap;html=1;boundedLbl=1;backgroundOutline=1;" parent="1" vertex="1">
                    <mxGeometry x="384" y="610" width="60" height="80" as="geometry"/>
                </mxCell>
            </root>
        </mxGraphModel>
    </diagram>
    <diagram id="Mpqez84OMO6wbIpgz7qG" name="Страница 2">
        <mxGraphModel dx="838" dy="556" grid="1" gridSize="10" guides="1" tooltips="1" connect="1" arrows="1" fold="1" page="1" pageScale="1" pageWidth="827" pageHeight="1169" math="0" shadow="0">
            <root>
                <mxCell id="fnSDP45AM_YYFh1hsygT-0"/>
                <mxCell id="fnSDP45AM_YYFh1hsygT-1" parent="fnSDP45AM_YYFh1hsygT-0"/>
                <mxCell id="fnSDP45AM_YYFh1hsygT-4" value="" style="edgeStyle=orthogonalEdgeStyle;rounded=0;orthogonalLoop=1;jettySize=auto;html=1;" edge="1" parent="fnSDP45AM_YYFh1hsygT-1" source="fnSDP45AM_YYFh1hsygT-2" target="fnSDP45AM_YYFh1hsygT-3">
                    <mxGeometry relative="1" as="geometry"/>
                </mxCell>
                <mxCell id="fnSDP45AM_YYFh1hsygT-2" value="StartPage&lt;br&gt;" style="ellipse;whiteSpace=wrap;html=1;" vertex="1" parent="fnSDP45AM_YYFh1hsygT-1">
                    <mxGeometry x="310" y="20" width="120" height="60" as="geometry"/>
                </mxCell>
                <mxCell id="fnSDP45AM_YYFh1hsygT-3" value="AuthPage" style="whiteSpace=wrap;html=1;" vertex="1" parent="fnSDP45AM_YYFh1hsygT-1">
                    <mxGeometry x="310" y="160" width="120" height="60" as="geometry"/>
                </mxCell>
            </root>
        </mxGraphModel>
    </diagram>
</mxfile>